<svg width="17" height="20" viewBox="0 0 17 20" fill="none" xmlns="http://www.w3.org/2000/svg">
<path d="M14.4167 5.34036L14.4167 14.029C14.4167 14.4775 14.8092 14.8696 15.2573 14.8696C15.7058 14.8696 16.098 14.4771 16.098 14.029L16.0984 5.34036C16.0984 4.89187 15.7058 4.49969 15.2577 4.49969C14.8092 4.49969 14.4167 4.89188 14.4167 5.34036H14.4167Z" fill="white"/>
<path d="M7.6175 0.948822L7.6175 18.3258C7.6175 18.7743 8.01008 19.1665 8.45817 19.1665C8.90666 19.1665 9.29883 18.7739 9.29883 18.3258L9.29883 0.948822C9.29883 0.500333 8.90626 0.108158 8.45817 0.108158C8.00968 0.108158 7.6175 0.500343 7.6175 0.948822V0.948822Z" fill="white"/>
<path d="M0.666576 0.948822L0.666576 18.3258C0.666576 18.7743 1.05915 19.1665 1.50724 19.1665C1.95573 19.1665 2.3479 18.7739 2.3479 18.3258L2.3479 0.948822C2.3479 0.500333 1.95533 0.108158 1.50724 0.108158C1.05875 0.108158 0.666576 0.500343 0.666576 0.948822V0.948822Z" fill="white"/>
</svg>
