<svg width="18" height="13" viewBox="0 0 18 13" fill="none" xmlns="http://www.w3.org/2000/svg">
<g clip-path="url(#clip0_6032_3028)">
<path d="M3.29259 1.70757L7.58559 6.00057L3.29259 10.2936C3.11043 10.4822 3.00964 10.7348 3.01192 10.997C3.0142 11.2592 3.11937 11.51 3.30477 11.6954C3.49018 11.8808 3.74099 11.986 4.00319 11.9882C4.26539 11.9905 4.51799 11.8897 4.70659 11.7076L9.70659 6.70757C9.89406 6.52004 9.99938 6.26573 9.99938 6.00057C9.99938 5.7354 9.89406 5.4811 9.70659 5.29357L4.70659 0.29357C4.61435 0.198059 4.504 0.121877 4.382 0.0694675C4.25999 0.0170584 4.12877 -0.0105276 3.99599 -0.0116816C3.86321 -0.0128355 3.73154 0.0124674 3.60864 0.062748C3.48574 0.113029 3.37409 0.187282 3.2802 0.281175C3.18631 0.375068 3.11205 0.486719 3.06177 0.609615C3.01149 0.732512 2.98619 0.864191 2.98734 0.99697C2.9885 1.12975 3.01608 1.26097 3.06849 1.38297C3.1209 1.50498 3.19708 1.61532 3.29259 1.70757Z" fill="url(#paint0_linear_6032_3028)"/>
</g>
<g clip-path="url(#clip1_6032_3028)">
<path d="M9.29259 1.76421L13.5856 6.05721L9.29259 10.3502C9.11043 10.5388 9.00964 10.7914 9.01192 11.0536C9.0142 11.3158 9.11937 11.5666 9.30477 11.752C9.49018 11.9374 9.74099 12.0426 10.0032 12.0449C10.2654 12.0472 10.518 11.9464 10.7066 11.7642L15.7066 6.76421C15.8941 6.57668 15.9994 6.32237 15.9994 6.05721C15.9994 5.79205 15.8941 5.53774 15.7066 5.35021L10.7066 0.35021C10.6143 0.2547 10.504 0.178517 10.382 0.126108C10.26 0.073699 10.1288 0.046113 9.99599 0.0449591C9.86321 0.0438051 9.73154 0.069108 9.60864 0.119389C9.48574 0.169669 9.37409 0.243922 9.2802 0.337815C9.18631 0.431708 9.11205 0.54336 9.06177 0.666256C9.01149 0.789152 8.98619 0.920832 8.98734 1.05361C8.9885 1.18639 9.01608 1.31761 9.06849 1.43961C9.1209 1.56162 9.19708 1.67196 9.29259 1.76421Z" fill="url(#paint1_linear_6032_3028)"/>
</g>
<defs>
<linearGradient id="paint0_linear_6032_3028" x1="2.9873" y1="5.98828" x2="9.99938" y2="5.98828" gradientUnits="userSpaceOnUse">
<stop stop-color="#5DADE4"/>
<stop offset="1" stop-color="#AB4AE6"/>
</linearGradient>
<linearGradient id="paint1_linear_6032_3028" x1="8.9873" y1="6.04492" x2="15.9994" y2="6.04492" gradientUnits="userSpaceOnUse">
<stop stop-color="#5DADE4"/>
<stop offset="1" stop-color="#AB4AE6"/>
</linearGradient>
<clipPath id="clip0_6032_3028">
<rect width="12" height="12" fill="white" transform="matrix(0 -1 1 0 0 12)"/>
</clipPath>
<clipPath id="clip1_6032_3028">
<rect width="12" height="12" fill="white" transform="matrix(0 -1 1 0 6 12.0566)"/>
</clipPath>
</defs>
</svg>
