<svg width="13" height="18" viewBox="0 0 13 18" fill="none" xmlns="http://www.w3.org/2000/svg">
<g clip-path="url(#clip0_5997_16442)">
<path d="M11.2133 3.29357L6.92033 7.58657L2.62733 3.29357C2.43873 3.11141 2.18612 3.01062 1.92393 3.0129C1.66173 3.01517 1.41092 3.12034 1.22551 3.30575C1.0401 3.49116 0.934933 3.74197 0.932655 4.00417C0.930377 4.26636 1.03117 4.51897 1.21333 4.70757L6.21333 9.70757C6.40086 9.89504 6.65516 10.0004 6.92033 10.0004C7.18549 10.0004 7.4398 9.89504 7.62733 9.70757L12.6273 4.70757C12.7228 4.61532 12.799 4.50498 12.8514 4.38297C12.9038 4.26097 12.9314 4.12975 12.9326 3.99697C12.9337 3.86419 12.9084 3.73251 12.8582 3.60962C12.8079 3.48672 12.7336 3.37507 12.6397 3.28117C12.5458 3.18728 12.4342 3.11303 12.3113 3.06275C12.1884 3.01247 12.0567 2.98717 11.9239 2.98832C11.7911 2.98947 11.6599 3.01706 11.5379 3.06947C11.4159 3.12188 11.3056 3.19806 11.2133 3.29357Z" fill="white"/>
</g>
<g clip-path="url(#clip1_5997_16442)">
<path d="M11.2133 9.29357L6.92033 13.5866L2.62733 9.29357C2.43873 9.11141 2.18612 9.01062 1.92393 9.0129C1.66173 9.01517 1.41092 9.12034 1.22551 9.30575C1.0401 9.49116 0.934933 9.74197 0.932655 10.0042C0.930377 10.2664 1.03117 10.519 1.21333 10.7076L6.21333 15.7076C6.40086 15.895 6.65516 16.0004 6.92033 16.0004C7.18549 16.0004 7.4398 15.895 7.62733 15.7076L12.6273 10.7076C12.7228 10.6153 12.799 10.505 12.8514 10.383C12.9038 10.261 12.9314 10.1298 12.9326 9.99697C12.9337 9.86419 12.9084 9.73251 12.8582 9.60962C12.8079 9.48672 12.7336 9.37507 12.6397 9.28117C12.5458 9.18728 12.4342 9.11303 12.3113 9.06275C12.1884 9.01247 12.0567 8.98717 11.9239 8.98832C11.7911 8.98947 11.6599 9.01706 11.5379 9.06947C11.4159 9.12188 11.3056 9.19806 11.2133 9.29357Z" fill="white"/>
</g>
<defs>
<clipPath id="clip0_5997_16442">
<rect width="12" height="12" fill="white" transform="translate(0.919922)"/>
</clipPath>
<clipPath id="clip1_5997_16442">
<rect width="12" height="12" fill="white" transform="translate(0.919922 6)"/>
</clipPath>
</defs>
</svg>
