<svg width="12" height="18" viewBox="0 0 12 18" fill="none" xmlns="http://www.w3.org/2000/svg">
<g clip-path="url(#clip0_6123_9761)">
<path d="M1.70659 14.7064L5.99959 10.4134L10.2926 14.7064C10.4812 14.8886 10.7338 14.9894 10.996 14.9871C11.2582 14.9848 11.509 14.8797 11.6944 14.6942C11.8798 14.5088 11.985 14.258 11.9873 13.9958C11.9895 13.7336 11.8888 13.481 11.7066 13.2924L6.70659 8.29243C6.51906 8.10496 6.26476 7.99964 5.99959 7.99964C5.73443 7.99964 5.48012 8.10496 5.29259 8.29243L0.292593 13.2924C0.197083 13.3847 0.1209 13.495 0.068491 13.617C0.0160818 13.739 -0.0115042 13.8702 -0.0126581 14.003C-0.0138121 14.1358 0.0114908 14.2675 0.0617714 14.3904C0.112052 14.5133 0.186305 14.6249 0.280198 14.7188C0.374091 14.8127 0.485743 14.887 0.608639 14.9373C0.731535 14.9875 0.863214 15.0128 0.995994 15.0117C1.12877 15.0105 1.25999 14.9829 1.382 14.9305C1.504 14.8781 1.61435 14.8019 1.70659 14.7064Z" fill="url(#paint0_linear_6123_9761)"/>
</g>
<g clip-path="url(#clip1_6123_9761)">
<path d="M1.70659 8.70643L5.99959 4.41343L10.2926 8.70643C10.4812 8.88859 10.7338 8.98938 10.996 8.9871C11.2582 8.98483 11.509 8.87966 11.6944 8.69425C11.8798 8.50884 11.985 8.25803 11.9873 7.99583C11.9895 7.73364 11.8888 7.48103 11.7066 7.29243L6.70659 2.29243C6.51906 2.10496 6.26476 1.99964 5.99959 1.99964C5.73443 1.99964 5.48012 2.10496 5.29259 2.29243L0.292593 7.29243C0.197083 7.38468 0.1209 7.49502 0.068491 7.61703C0.0160818 7.73903 -0.0115042 7.87025 -0.0126581 8.00303C-0.0138121 8.13581 0.0114908 8.26749 0.0617714 8.39038C0.112052 8.51328 0.186305 8.62493 0.280198 8.71883C0.374091 8.81272 0.485743 8.88697 0.608639 8.93725C0.731535 8.98753 0.863214 9.01283 0.995994 9.01168C1.12877 9.01053 1.25999 8.98294 1.382 8.93053C1.504 8.87812 1.61435 8.80194 1.70659 8.70643Z" fill="url(#paint1_linear_6123_9761)"/>
</g>
<defs>
<linearGradient id="paint0_linear_6123_9761" x1="5.9873" y1="15.0117" x2="5.9873" y2="7.99964" gradientUnits="userSpaceOnUse">
<stop stop-color="#6A9EE5"/>
<stop offset="1" stop-color="#9E5BE6"/>
</linearGradient>
<linearGradient id="paint1_linear_6123_9761" x1="5.9873" y1="9.01172" x2="5.9873" y2="1.99964" gradientUnits="userSpaceOnUse">
<stop stop-color="#6A9EE5"/>
<stop offset="1" stop-color="#9E5BE6"/>
</linearGradient>
<clipPath id="clip0_6123_9761">
<rect width="12" height="12" fill="white" transform="matrix(-1 0 0 -1 12 18)"/>
</clipPath>
<clipPath id="clip1_6123_9761">
<rect width="12" height="12" fill="white" transform="matrix(-1 0 0 -1 12 12)"/>
</clipPath>
</defs>
</svg>
